<svg width="24" height="24" viewBox="0 0 24 24" fill="none" xmlns="http://www.w3.org/2000/svg">
<path d="M20.728 0H16.721C16.1267 0 15.645 0.481742 15.645 1.076V22.924C15.645 23.5183 16.1267 24 16.721 24H20.728C21.3222 24 21.804 23.5183 21.804 22.924V1.076C21.804 0.481742 21.3222 0 20.728 0Z" fill="#F59E0B"/>
<path d="M13.569 6.611H9.56199C8.96773 6.611 8.48599 7.09274 8.48599 7.687V22.924C8.48599 23.5183 8.96773 24 9.56199 24H13.569C14.1633 24 14.645 23.5183 14.645 22.924V7.687C14.645 7.09274 14.1633 6.611 13.569 6.611Z" fill="#EA580C"/>
<path d="M6.41 13.49H2.403C1.80874 13.49 1.327 13.9717 1.327 14.566V22.924C1.327 23.5183 1.80874 24 2.403 24H6.41C7.00425 24 7.486 23.5183 7.486 22.924V14.566C7.486 13.9717 7.00425 13.49 6.41 13.49Z" fill="#EA580C"/>
</svg>
